<?xml version="1.0" encoding="UTF-8" standalone="no"?>
<!-- Created with Inkscape (http://www.inkscape.org/) -->

<svg
   version="1.1"
   id="svg1"
   width="506.88"
   height="499.20001"
   viewBox="0 0 506.88 499.20001"
   sodipodi:docname="logoWebV2.svg"
   inkscape:export-filename="Github Repositories\ohwhataworld2.0\assets\logoWebV2.svg"
   inkscape:export-xdpi="96"
   inkscape:export-ydpi="96"
   inkscape:version="1.3.2 (091e20e, 2023-11-25, custom)"
   xmlns:inkscape="http://www.inkscape.org/namespaces/inkscape"
   xmlns:sodipodi="http://sodipodi.sourceforge.net/DTD/sodipodi-0.dtd"
   xmlns="http://www.w3.org/2000/svg"
   xmlns:svg="http://www.w3.org/2000/svg">
  <defs
     id="defs1" />
  <sodipodi:namedview
     id="namedview1"
     pagecolor="#ffffff"
     bordercolor="#000000"
     borderopacity="0.25"
     inkscape:showpageshadow="2"
     inkscape:pageopacity="0.0"
     inkscape:pagecheckerboard="0"
     inkscape:deskcolor="#d1d1d1"
     inkscape:zoom="1.1959134"
     inkscape:cx="253.78091"
     inkscape:cy="177.68845"
     inkscape:window-width="1536"
     inkscape:window-height="793"
     inkscape:window-x="-8"
     inkscape:window-y="-8"
     inkscape:window-maximized="1"
     inkscape:current-layer="g1" />
  <g
     inkscape:groupmode="layer"
     inkscape:label="Image"
     id="g1">
    <path
       sodipodi:type="star"
       style="opacity:0.96699;fill:#f73b77;fill-opacity:1;fill-rule:evenodd;stroke:none;stroke-width:4.058;stroke-linejoin:bevel"
       id="path3"
       inkscape:flatsided="true"
       sodipodi:sides="3"
       sodipodi:cx="248.34573"
       sodipodi:cy="47.662312"
       sodipodi:r1="150.79335"
       sodipodi:r2="75.396675"
       sodipodi:arg1="2.6179939"
       sodipodi:arg2="3.6651914"
       inkscape:rounded="0"
       inkscape:randomized="0"
       d="M 117.75486,123.05898 248.34574,-103.13104 378.9366,123.05899 Z"
       inkscape:transform-center-y="-57.627321"
       transform="matrix(1.605089,0,0,1.5286434,-148.18081,209.21301)"
       inkscape:transform-center-x="-8.0296443e-06" />
    <path
       style="fill:#223240;fill-opacity:1;fill-rule:nonzero"
       d="m 178.13288,398.20163 -142.842748,-0.32 9.15234,-15.04 c 5.03378,-8.272 18.16293,-29.872 29.17589,-48 11.01295,-18.128 24.83685,-40.88 30.719758,-50.56 5.88292,-9.68 23.36812,-38.48 38.85602,-64 15.4879,-25.52001 39.18599,-64.54401 52.66242,-86.72001 13.47644,-22.176 29.82584,-49.103995 36.332,-59.839995 16.08109,-26.535845 16.3198,-26.922642 16.49594,-26.729708 0.13547,0.14839 29.98788,48.928029 61.40027,100.329703 9.51083,15.56306 43.73269,71.5212 67.51641,110.40001 5.38332,8.8 12.44598,20.32 15.69481,25.6 3.24884,5.28 9.5006,15.504 13.89282,22.72 4.39222,7.216 18.71271,30.65923 31.8233,52.09608 13.1106,21.43684 23.98753,39.3672 24.17097,39.84523 0.27998,0.72961 -11.10944,0.84263 -70.93696,0.70392 -39.19876,-0.0909 -135.54972,-0.30923 -214.11324,-0.48523 z m 272.44276,-6.11 c 0,-0.31258 -8.09396,-13.82985 -16.9349,-28.28202 -1.7738,-2.89962 -5.63669,-9.23562 -8.5842,-14.08 -2.94751,-4.84439 -6.62416,-10.82398 -8.17034,-13.28798 l -2.81123,-4.48 -165.58967,0.17565 -165.589658,0.17565 -11.2,18.35654 c -16.3895,26.86203 -24.96,41.09658 -24.96,41.45552 0,0.17415 90.863998,0.31664 201.919998,0.31664 111.056,0 201.92,-0.1575 201.92,-0.35 z m -287.49049,-15.81 c -0.58712,-2.904 -1.64698,-7.872 -2.35525,-11.04 -1.63674,-7.32099 -4.44711,-21.09417 -4.32623,-21.20217 0.0506,-0.0452 2.26122,-0.27989 4.91251,-0.52154 l 4.82055,-0.43936 1.12448,7.69705 c 0.61847,4.23338 1.49999,8.78167 1.95893,10.1073 0.75309,2.17525 0.89649,2.28683 1.47082,1.14448 0.35001,-0.69617 1.00402,-2.99376 1.45335,-5.10576 0.44933,-2.112 1.00019,-4.128 1.22415,-4.48 0.22395,-0.352 0.83918,-2.368 1.36718,-4.48 l 0.96,-3.84 3.36,-0.19345 c 2.91363,-0.16774 3.36,-0.036 3.36,0.992 0,0.652 0.24243,1.45905 0.53873,1.79345 0.29629,0.3344 0.90435,2.336 1.35124,4.448 0.44689,2.112 1.03075,4.128 1.29746,4.48 0.26672,0.352 0.83939,2.152 1.27259,4 0.92748,3.9565 1.72867,4.29448 2.27571,0.96 0.21656,-1.32 0.78815,-4.128 1.27022,-6.24 0.48207,-2.112 1.07357,-5.51555 1.31444,-7.56345 l 0.43796,-3.72345 3.92082,0.33881 c 2.15646,0.18635 4.38034,0.3499 4.94196,0.36345 1.09677,0.0265 0.80934,1.9117 -2.66272,17.46464 -0.72687,3.256 -1.94447,9.16 -2.70577,13.12 l -1.38419,7.2 h -4.22608 c -4.98869,0 -4.52171,0.60842 -7.99139,-10.41179 -1.30424,-4.14248 -2.59984,-7.673 -2.87909,-7.84558 -0.27925,-0.17259 -0.70842,0.62471 -0.95371,1.77178 -0.24529,1.14708 -0.67422,2.37359 -0.95318,2.72559 -0.27895,0.352 -0.94994,2.224 -1.49108,4.16 -0.54114,1.936 -1.46579,4.888 -2.05477,6.56 l -1.07088,3.04 h -4.25563 -4.25564 z m 53.32912,3.59931 c -6.76235,-3.36982 -10.00896,-11.90076 -8.42188,-22.12974 0.91219,-5.87919 3.24874,-9.78677 7.38447,-12.34957 2.8133,-1.74333 3.60359,-1.92 8.58859,-1.92 4.80556,0 5.85493,0.21443 8.41511,1.71953 9.02211,5.30403 11.19799,21.5774 4.12498,30.8506 -4.15008,5.44104 -13.34137,7.1928 -20.09127,3.82918 z m 10.67988,-7.93572 c 2.69574,-1.64354 3.96149,-4.68576 3.96149,-9.52137 0,-4.30994 -0.75045,-6.76589 -2.70499,-8.85242 -3.00138,-3.20408 -8.4754,-2.11646 -10.22788,2.03216 -1.05852,2.50581 -1.0309,11.7302 0.0409,13.67229 0.89732,1.62587 4.34719,3.96096 5.85194,3.96096 0.528,0 1.91333,-0.58123 3.07851,-1.29162 z m 21.88149,-9.17659 v -18.793 l 7.24187,-0.44596 c 9.18419,-0.56557 12.32152,0.14593 15.74671,3.57112 2.51609,2.5161 4.53142,7.00975 4.53142,10.10388 0,2.56134 -2.35144,8.38924 -4.13677,10.25272 l -1.6075,1.67786 3.50824,5.73319 c 1.92952,3.15325 3.50998,5.9604 3.51213,6.23811 0.002,0.2777 -2.4967,0.4217 -5.55299,0.32 l -5.55688,-0.18492 -2.13767,-3.52 c -1.17572,-1.936 -2.41199,-4.168 -2.74728,-4.96 -0.34649,-0.81849 -1.16889,-1.44 -1.90544,-1.44 -1.19313,0 -1.29584,0.4058 -1.29584,5.12 v 5.12 h -4.8 -4.8 z m 15.95355,-2.09331 c 2.88277,-3.66485 0.76561,-8.15885 -3.67001,-7.79015 l -2.36354,0.19646 -0.19457,3.76834 c -0.2547,4.93274 0.0276,5.51166 2.68803,5.51166 1.62915,0 2.56388,-0.44526 3.54009,-1.68631 z m 19.88645,2.09005 v -18.79626 l 2.4,-0.3967 c 1.32,-0.21818 3.624,-0.39986 5.12,-0.40374 l 2.72,-0.007 v 14.4 14.4 h 5.44 5.44 v 4.8 4.8 h -10.56 -10.56 z m 29.44,-0.0124 v -18.80861 l 8.23679,-0.45814 c 7.50448,-0.41741 8.48602,-0.34239 11.04,0.84383 3.72588,1.73053 5.19476,3.06541 7.1651,6.51154 3.61662,6.32544 3.57919,18.0748 -0.0743,23.34213 -2.40532,3.46775 -6.47715,6.18817 -10.17162,6.79573 -1.69176,0.27821 -6.02792,0.52301 -9.63592,0.54399 l -6.56,0.0381 z m 17.50756,7.3455 c 1.80846,-1.80845 2.3224,-10.1103 0.84483,-13.64663 -1.05894,-2.53438 -4.10022,-4.53588 -6.39571,-4.20909 -1.35746,0.19325 -1.40165,0.47531 -1.57381,10.044 l -0.17712,9.84517 2.96881,-0.33463 c 1.83224,-0.20652 3.49108,-0.85689 4.333,-1.69882 z m 78.77243,-42.87213 c 0.31742,-0.51361 -3.81863,-7.59626 -18.51999,-31.71398 -11.01795,-18.07506 -14.89309,-24.35283 -17.32066,-28.05964 l -2.60066,-3.97113 -123.2746,-0.16163 -123.2746,-0.16163 -1.48474,2.07184 c -0.81661,1.1395 -3.67073,5.67624 -6.3425,10.08162 -2.67177,4.40539 -8.1139,13.3378 -12.09362,19.8498 -3.97973,6.512 -8.017448,13.136 -8.972718,14.72 -0.95527,1.584 -3.65409,5.9955 -5.99736,9.80335 -2.34327,3.80784 -4.09456,7.19184 -3.89175,7.52 0.48666,0.78742 323.286578,0.80876 323.773198,0.0214 z M 231.36169,311.32163 c 0.24667,-1.32 0.68497,-2.688 0.97401,-3.04 0.28903,-0.352 0.99317,-2.512 1.56475,-4.8 0.57159,-2.288 1.2898,-4.736 1.59603,-5.44 0.73429,-1.68809 4.37817,-13.55028 4.91495,-16 0.23139,-1.056 0.62929,-2.208 0.88421,-2.56 0.25493,-0.352 0.6527,-1.432 0.88395,-2.4 0.40403,-1.6913 0.57923,-1.76 4.48825,-1.76 2.23729,0 4.93831,-0.1741 6.00226,-0.38689 1.78762,-0.35753 1.96933,-0.22394 2.3939,1.76 0.2527,1.18079 0.67485,2.43489 0.93811,2.78689 0.26327,0.352 0.98936,2.8 1.61353,5.44 0.62418,2.64 1.34581,5.088 1.60362,5.44 0.25782,0.352 0.83897,2.224 1.29145,4.16 0.45248,1.936 1.05064,3.952 1.32925,4.48 0.56837,1.07716 4.41971,13.49279 4.41726,14.24 -8.7e-4,0.264 -2.15609,0.48 -4.78938,0.48 -4.70663,0 -4.79409,-0.0299 -5.15812,-1.76 -0.76118,-3.61769 -0.89734,-3.68 -8.04097,-3.68 h -6.64738 l -0.5738,2.72 -0.57379,2.72 h -4.7803 -4.78029 z m 20.58851,-13.77112 c -0.20032,-0.79812 -0.69429,-3.03012 -1.09773,-4.96 -0.40343,-1.92989 -0.99076,-3.78248 -1.30517,-4.11688 -0.31441,-0.3344 -0.58319,-1.1984 -0.59728,-1.92 -0.0442,-2.26359 -1.64134,1.34953 -2.53199,5.728 -0.42961,2.112 -1.06269,4.18738 -1.40685,4.61196 -1.12939,1.39333 0.14256,2.10804 3.75161,2.10804 3.37164,0 3.53316,-0.0735 3.18741,-1.45112 z m 117.34544,-39.2148 c 0,-0.19025 -0.53094,-1.12625 -1.17988,-2.08 -1.84135,-2.70627 -4.09153,-6.31602 -8.26208,-13.25408 -2.11591,-3.52 -6.22956,-10.288 -9.14144,-15.04 -11.8618,-19.35769 -19.49154,-31.87919 -21.54595,-35.36001 l -2.17196,-3.68 h -78.33869 -78.33868 l -2.17197,3.68 c -2.0544,3.48082 -9.68414,16.00232 -21.54594,35.36001 -2.91188,4.752 -7.02553,11.52 -9.14144,15.04 -4.17055,6.93806 -6.42073,10.54781 -8.26209,13.25408 -0.64893,0.95375 -1.17988,1.88975 -1.17988,2.08 0,0.19025 54.288,0.34592 120.64,0.34592 66.352,0 120.64,-0.15567 120.64,-0.34592 z M 181.84822,239.96163 c -0.40357,-1.496 -1.14168,-4.736 -1.64024,-7.2 -0.49856,-2.464 -1.6684,-7.936 -2.59966,-12.16 -0.93125,-4.224 -2.06534,-9.46856 -2.52021,-11.65457 l -0.82702,-3.97457 4.87728,-0.18543 4.87727,-0.18543 0.78601,4.16 c 1.2846,6.79878 2.72894,15.00519 2.73156,15.52 0.001,0.264 0.24366,0.48 0.53849,0.48 0.29484,0 1.47216,-3.384 2.61629,-7.52 3.45418,-12.48689 2.98894,-11.68035 6.73622,-11.67782 l 3.23143,0.002 2.11708,7.83782 c 1.16439,4.3108 2.44131,8.67322 2.83759,9.69427 l 0.72053,1.85645 0.79058,-2.28354 c 0.43482,-1.25595 1.11353,-4.53936 1.50824,-7.29646 0.39471,-2.7571 1.02927,-6.3089 1.41011,-7.8929 l 0.69246,-2.88 4.78556,0.21279 4.78556,0.2128 -0.34352,2.0272 c -0.33008,1.94789 -0.823,4.24122 -4.56252,21.22721 -0.92993,4.224 -1.99392,9.20399 -2.36443,11.06666 l -0.67365,3.38666 -4.53316,-0.18666 -4.53316,-0.18666 -0.54109,-2.24 c -0.2976,-1.232 -0.79892,-2.816 -1.11404,-3.52 -0.31513,-0.704 -0.90626,-2.432 -1.31362,-3.84 -1.41372,-4.88629 -2.7153,-7.97247 -3.22856,-7.65526 -0.2838,0.1754 -0.97798,1.96959 -1.54262,3.98708 -0.56464,2.0175 -1.29244,4.24418 -1.61734,4.94818 -0.3249,0.704 -1.05425,2.936 -1.62077,4.96 l -1.03005,3.68 h -4.35142 -4.35141 z m 44.87776,-16 0.16966,-18.72 4.96,-0.18693 4.96,-0.18692 v 8.02692 8.02693 h 4.48 4.48 v -8 -8 h 4.8 4.8 v 18.88 18.88 h -4.8 -4.8 v -6.08 -6.08 h -4.48 -4.48 v 6.08 6.08 h -5.12966 -5.12967 z m 35.226,14.72 c 0.67946,-2.2 1.4641,-4.576 1.74364,-5.28 0.27955,-0.704 1.43027,-4.304 2.55717,-8 3.99823,-13.11338 4.61049,-15.07057 5.56281,-17.78244 l 0.96304,-2.74243 6.11452,0.18243 6.11451,0.18244 1.21217,4.16 c 0.66668,2.288 1.64206,5.744 2.16749,7.68 0.52544,1.936 1.22218,4.096 1.54831,4.8 0.32614,0.704 1.02342,2.864 1.54951,4.8 1.14485,4.21296 3.923,13.30989 4.54427,14.88 0.39992,1.01069 -0.0604,1.12 -4.7163,1.12 h -5.15948 l -0.42155,-2.24707 c -0.23185,-1.23589 -0.68992,-2.41293 -1.01793,-2.61566 -0.32801,-0.20272 -3.24736,-0.37352 -6.48745,-0.37956 l -5.89107,-0.011 -0.86073,2.62663 -0.86073,2.62664 h -4.9488 -4.94879 z m 19.96019,-12.16 c -0.24485,-1.144 -0.81214,-3.232 -1.26065,-4.64 -0.4485,-1.408 -0.99654,-3.352 -1.21786,-4.32 -0.55521,-2.42835 -1.43244,-2.2031 -1.93916,0.49794 -0.23297,1.24186 -0.98502,4.01538 -1.67122,6.16337 -0.6862,2.14799 -1.24764,4.01192 -1.24764,4.14206 0,0.13014 1.75089,0.23663 3.89085,0.23663 h 3.89086 z m 21.95572,1.92 -0.17225,-14.24 -4,-0.19054 -4,-0.19054 v -4.44946 -4.44946 h 13.44 13.44 v 4.45075 4.45076 l -4.32,0.18924 -4.32,0.18925 -0.17224,14.24 -0.17225,14.24 h -4.77551 -4.77551 z m 19.96966,-44.48001 c -0.01,-0.264 -1.08995,-2.11614 -2.4,-4.11587 -1.31005,-1.99974 -2.84924,-4.44774 -3.42042,-5.44 -1.35619,-2.35599 -12.55893,-20.72505 -34.66755,-56.84413 -3.87828,-6.336 -9.49701,-15.55199 -12.48605,-20.479994 -2.98905,-4.928001 -6.07426,-9.968001 -6.85604,-11.200001 -1.66687,-2.626796 -9.40166,-15.351837 -12.5348,-20.621849 -1.19738,-2.014016 -2.46505,-3.661848 -2.81705,-3.661848 -0.352,0 -1.61967,1.647832 -2.81705,3.661848 -3.13314,5.270012 -10.86793,17.995053 -12.53479,20.621849 -0.78178,1.232 -3.867,6.272 -6.85604,11.200001 -5.26943,8.687654 -10.13951,16.658324 -28.1028,45.994894 -8.34732,13.63235 -10.86077,17.77112 -15.59844,25.6851 -1.26433,2.112 -3.87201,6.40272 -5.79483,9.53493 -1.92283,3.13221 -3.49605,5.79621 -3.49605,5.92 0,0.12379 33.84,0.22507 75.2,0.22507 41.36,0 75.19186,-0.216 75.18191,-0.48 z m -100.73668,-14.2995 c -8.77032,-2.12107 -13.2376,-10.00536 -12.27436,-21.66295 0.48635,-5.88611 2.14329,-9.45943 5.93319,-12.79544 4.85211,-4.27099 12.74001,-4.97742 18.45594,-1.65288 6.0375,3.51157 8.23977,8.13817 8.23044,17.29077 -0.005,5.26832 -0.26695,6.99496 -1.4793,9.76466 -1.56544,3.57636 -4.752,6.83468 -7.98459,8.1644 -2.85125,1.17285 -7.98031,1.59304 -10.88132,0.89144 z m 8.48344,-10.26579 c 1.50713,-1.54153 2.06125,-2.81133 2.396,-5.49056 0.91918,-7.35689 -0.73842,-11.8295 -4.83952,-13.05822 -4.88461,-1.46346 -8.1405,1.22893 -8.76142,7.24509 -0.86517,8.3827 1.61893,13.30898 6.7111,13.30898 1.9949,0 2.94996,-0.42617 4.49384,-2.00529 z m 19.95133,-8.55471 v -18.88 h 5.12 5.12 v 8 8 h 4.48 4.48 v -8 -8 h 5.12 5.12 v 18.88 18.88 h -5.12 -5.12 v -6.10924 -6.10924 l -4.32,0.18924 -4.32,0.18924 -0.18401,5.92 -0.18402,5.92 h -5.09598 -5.09599 z"
       id="path1" />
  </g>
</svg>
